function data()
return { 
		subMeshes = {
			{ 
				indices = { 
					normal = { 
						count = 12048,
						offset = 127096,
					},
					position = { 
						count = 12048,
						offset = 103000,
					},
					tangent = { 
						count = 12048,
						offset = 139144,
					},
					uv0 = { 
						count = 12048,
						offset = 115048,
					},
				},
			},
		},
		vertexAttr = { 
			normal = { 
				count = 36144,
				numComp = 3,
				offset = 18664,
			},
			position = { 
				count = 7560,
				numComp = 3,
				offset = 0,
			},
			tangent = { 
				count = 48192,
				numComp = 4,
				offset = 54808,
			},
			uv0 = { 
				count = 11104,
				numComp = 2,
				offset = 7560,
			},
		},
	}
end