function data()
return { 
		subMeshes = {
			{ 
				indices = { 
					normal = { 
						count = 17952,
						offset = 178408,
					},
					position = { 
						count = 17952,
						offset = 142504,
					},
					tangent = { 
						count = 17952,
						offset = 196360,
					},
					uv0 = { 
						count = 17952,
						offset = 160456,
					},
				},
			},
		},
		vertexAttr = { 
			normal = { 
				count = 53856,
				numComp = 3,
				offset = 16840,
			},
			position = { 
				count = 9144,
				numComp = 3,
				offset = 0,
			},
			tangent = { 
				count = 71808,
				numComp = 4,
				offset = 70696,
			},
			uv0 = { 
				count = 7696,
				numComp = 2,
				offset = 9144,
			},
		},
	}
end