function data()
return { 
		subMeshes = {
			{ 
				indices = { 
					normal = { 
						count = 49920,
						offset = 499040,
					},
					position = { 
						count = 49920,
						offset = 399200,
					},
					tangent = { 
						count = 49920,
						offset = 548960,
					},
					uv0 = { 
						count = 49920,
						offset = 449120,
					},
				},
			},
		},
		vertexAttr = { 
			normal = { 
				count = 149760,
				numComp = 3,
				offset = 49760,
			},
			position = { 
				count = 19680,
				numComp = 3,
				offset = 0,
			},
			tangent = { 
				count = 199680,
				numComp = 4,
				offset = 199520,
			},
			uv0 = { 
				count = 30080,
				numComp = 2,
				offset = 19680,
			},
		},
	}
end