function data()
return { 
		subMeshes = {
			{ 
				indices = { 
					normal = { 
						count = 15828,
						offset = 173128,
					},
					position = { 
						count = 15828,
						offset = 141472,
					},
					tangent = { 
						count = 15828,
						offset = 188956,
					},
					uv0 = { 
						count = 15828,
						offset = 157300,
					},
				},
			},
		},
		vertexAttr = { 
			normal = { 
				count = 47484,
				numComp = 3,
				offset = 30676,
			},
			position = { 
				count = 16788,
				numComp = 3,
				offset = 0,
			},
			tangent = { 
				count = 63312,
				numComp = 4,
				offset = 78160,
			},
			uv0 = { 
				count = 13888,
				numComp = 2,
				offset = 16788,
			},
		},
	}
end