function data()
return { 
		subMeshes = {
			{ 
				indices = { 
					normal = { 
						count = 246840,
						offset = 2773136,
					},
					position = { 
						count = 246840,
						offset = 2279456,
					},
					tangent = { 
						count = 246840,
						offset = 3019976,
					},
					uv0 = { 
						count = 246840,
						offset = 2526296,
					},
				},
			},
		},
		vertexAttr = { 
			normal = { 
				count = 740520,
				numComp = 3,
				offset = 551576,
			},
			position = { 
				count = 321240,
				numComp = 3,
				offset = 0,
			},
			tangent = { 
				count = 987360,
				numComp = 4,
				offset = 1292096,
			},
			uv0 = { 
				count = 230336,
				numComp = 2,
				offset = 321240,
			},
		},
	}
end