function data()
return { 
		subMeshes = {
			{ 
				indices = { 
					normal = { 
						count = 22560,
						offset = 232592,
					},
					position = { 
						count = 22560,
						offset = 187472,
					},
					tangent = { 
						count = 22560,
						offset = 255152,
					},
					uv0 = { 
						count = 22560,
						offset = 210032,
					},
				},
			},
		},
		vertexAttr = { 
			normal = { 
				count = 67680,
				numComp = 3,
				offset = 29552,
			},
			position = { 
				count = 13584,
				numComp = 3,
				offset = 0,
			},
			tangent = { 
				count = 90240,
				numComp = 4,
				offset = 97232,
			},
			uv0 = { 
				count = 15968,
				numComp = 2,
				offset = 13584,
			},
		},
	}
end