function data()
return { 
		subMeshes = {
			{ 
				indices = { 
					normal = { 
						count = 22560,
						offset = 226656,
					},
					position = { 
						count = 22560,
						offset = 181536,
					},
					tangent = { 
						count = 22560,
						offset = 249216,
					},
					uv0 = { 
						count = 22560,
						offset = 204096,
					},
				},
			},
		},
		vertexAttr = { 
			normal = { 
				count = 67680,
				numComp = 3,
				offset = 23616,
			},
			position = { 
				count = 11424,
				numComp = 3,
				offset = 0,
			},
			tangent = { 
				count = 90240,
				numComp = 4,
				offset = 91296,
			},
			uv0 = { 
				count = 12192,
				numComp = 2,
				offset = 11424,
			},
		},
	}
end