function data()
return { 
		subMeshes = {
			{ 
				indices = { 
					normal = { 
						count = 15120,
						offset = 155096,
					},
					position = { 
						count = 15120,
						offset = 124856,
					},
					tangent = { 
						count = 15120,
						offset = 170216,
					},
					uv0 = { 
						count = 15120,
						offset = 139976,
					},
				},
			},
		},
		vertexAttr = { 
			normal = { 
				count = 45360,
				numComp = 3,
				offset = 19016,
			},
			position = { 
				count = 7992,
				numComp = 3,
				offset = 0,
			},
			tangent = { 
				count = 60480,
				numComp = 4,
				offset = 64376,
			},
			uv0 = { 
				count = 11024,
				numComp = 2,
				offset = 7992,
			},
		},
	}
end