function data()
return { 
		subMeshes = {
			{ 
				indices = { 
					normal = { 
						count = 5520,
						offset = 67040,
					},
					position = { 
						count = 5520,
						offset = 56000,
					},
					tangent = { 
						count = 5520,
						offset = 72560,
					},
					uv0 = { 
						count = 5520,
						offset = 61520,
					},
				},
			},
		},
		vertexAttr = { 
			normal = { 
				count = 16560,
				numComp = 3,
				offset = 17360,
			},
			position = { 
				count = 10416,
				numComp = 3,
				offset = 0,
			},
			tangent = { 
				count = 22080,
				numComp = 4,
				offset = 33920,
			},
			uv0 = { 
				count = 6944,
				numComp = 2,
				offset = 10416,
			},
		},
	}
end